<svg width="32" height="32" viewBox="0 0 31 31" fill="none" xmlns="http://www.w3.org/2000/svg">
  <circle cx="15.5" cy="15.5" r="14.5" fill="#E4C51E"/>
  <path d="M21.3494 8.95341C20.6842 8.95341 20.019 9.11386 19.4172 9.40268C18.8153 7.60558 17.1682 6.41821 15.2677 6.41821C13.3671 6.41821 11.72 7.63767 11.1181 9.40268C10.5163 9.11386 9.85112 8.95341 9.18593 8.95341C8.01394 8.95341 6.90529 9.40268 6.08172 10.2371C5.25815 11.0714 4.78302 12.1946 4.78302 13.382C4.78302 14.5694 5.22648 15.6925 6.08172 16.5269L13.9373 24.4855C14.2857 24.8385 14.7608 25.031 15.2677 25.031C15.7745 25.031 16.2179 24.8385 16.598 24.4855L24.4536 16.5269C25.2772 15.6925 25.7523 14.5694 25.7523 13.382C25.7523 12.1946 25.3088 11.0714 24.4536 10.2371C23.5983 9.40268 22.5214 8.95341 21.3494 8.95341ZM11.7517 15.9814C12.2268 15.9814 12.6069 15.5963 12.6069 15.1149V10.8468C12.6069 9.3385 13.8106 8.11904 15.2993 8.11904C16.7881 8.11904 17.9918 9.3385 17.9918 10.8468V10.8789C17.9918 10.8789 17.9918 10.8789 17.9918 10.911V15.147C17.9918 15.6284 18.3719 16.0135 18.847 16.0135C19.3221 16.0135 19.7022 15.6284 19.7022 15.147V11.2961C20.1774 10.911 20.7792 10.6863 21.3811 10.6863C22.1096 10.6863 22.7748 10.9751 23.2816 11.4886C23.7884 12.0021 24.0735 12.676 24.0735 13.4141C24.0735 14.1522 23.7884 14.8261 23.2816 15.3395L15.3944 23.2339C15.331 23.2981 15.236 23.2981 15.1726 23.2339L7.34875 15.3074C6.84194 14.794 6.55686 14.1201 6.55686 13.382C6.55686 12.6439 6.84194 11.97 7.34875 11.4565C7.85556 10.9431 8.52075 10.6542 9.24929 10.6542C9.85112 10.6542 10.453 10.8789 10.9281 11.264V15.1149C10.8964 15.5642 11.2765 15.9814 11.7517 15.9814Z" fill="#0C0D0C"/>
  <path d="M15.2993 0C6.87361 0 0 6.96377 0 15.5C0 24.0362 6.87361 31 15.2993 31C23.7251 31 30.5987 24.0362 30.5987 15.5C30.5987 6.96377 23.7251 0 15.2993 0ZM28.8882 15.5C28.8882 23.1056 22.8065 29.2671 15.2993 29.2671C7.79221 29.2671 1.71048 23.0735 1.71048 15.5C1.71048 7.9265 7.79221 1.73292 15.2993 1.73292C22.8065 1.73292 28.8882 7.89441 28.8882 15.5Z" fill="#0C0D0C"/>
</svg>
