<svg width="200" height="31" viewBox="0 0 200 31" fill="none" xmlns="http://www.w3.org/2000/svg">
<g clip-path="url(#clip0_220_641)">
<circle cx="15.5" cy="15.5" r="14.5" fill="#E4C51E"/>
<path d="M21.3494 8.95341C20.6842 8.95341 20.019 9.11386 19.4172 9.40268C18.8153 7.60558 17.1682 6.41821 15.2677 6.41821C13.3671 6.41821 11.72 7.63767 11.1181 9.40268C10.5163 9.11386 9.85112 8.95341 9.18593 8.95341C8.01394 8.95341 6.90529 9.40268 6.08172 10.2371C5.25815 11.0714 4.78302 12.1946 4.78302 13.382C4.78302 14.5694 5.22648 15.6925 6.08172 16.5269L13.9373 24.4855C14.2857 24.8385 14.7608 25.031 15.2677 25.031C15.7745 25.031 16.2179 24.8385 16.598 24.4855L24.4536 16.5269C25.2772 15.6925 25.7523 14.5694 25.7523 13.382C25.7523 12.1946 25.3088 11.0714 24.4536 10.2371C23.5983 9.40268 22.5214 8.95341 21.3494 8.95341ZM11.7517 15.9814C12.2268 15.9814 12.6069 15.5963 12.6069 15.1149V10.8468C12.6069 9.3385 13.8106 8.11904 15.2993 8.11904C16.7881 8.11904 17.9918 9.3385 17.9918 10.8468V10.8789C17.9918 10.8789 17.9918 10.8789 17.9918 10.911V15.147C17.9918 15.6284 18.3719 16.0135 18.847 16.0135C19.3221 16.0135 19.7022 15.6284 19.7022 15.147V11.2961C20.1774 10.911 20.7792 10.6863 21.3811 10.6863C22.1096 10.6863 22.7748 10.9751 23.2816 11.4886C23.7884 12.0021 24.0735 12.676 24.0735 13.4141C24.0735 14.1522 23.7884 14.8261 23.2816 15.3395L15.3944 23.2339C15.331 23.2981 15.236 23.2981 15.1726 23.2339L7.34875 15.3074C6.84194 14.794 6.55686 14.1201 6.55686 13.382C6.55686 12.6439 6.84194 11.97 7.34875 11.4565C7.85556 10.9431 8.52075 10.6542 9.24929 10.6542C9.85112 10.6542 10.453 10.8789 10.9281 11.264V15.1149C10.8964 15.5642 11.2765 15.9814 11.7517 15.9814Z" fill="#0C0D0C"/>
<path d="M15.2993 0C6.87361 0 0 6.96377 0 15.5C0 24.0362 6.87361 31 15.2993 31C23.7251 31 30.5987 24.0362 30.5987 15.5C30.5987 6.96377 23.7251 0 15.2993 0ZM28.8882 15.5C28.8882 23.1056 22.8065 29.2671 15.2993 29.2671C7.79221 29.2671 1.71048 23.0735 1.71048 15.5C1.71048 7.9265 7.79221 1.73292 15.2993 1.73292C22.8065 1.73292 28.8882 7.89441 28.8882 15.5Z" fill="#0C0D0C"/>
<path d="M48.5271 17.1045V9.59523L45.8347 15.0507H44.3142L41.6218 9.59523V17.1045H38.771V4.58902H41.8752L45.0744 11.1356L48.3054 4.58902H51.3779V17.1045H48.5271Z" fill="#0C0D0C"/>
<path d="M61.6408 4.55695H64.2065L68.7045 17.0725H65.7903L64.84 14.2805H61.0073L60.057 17.0725H57.1429C57.1429 17.1046 61.6408 4.55695 61.6408 4.55695ZM64.3966 12.2909L62.9395 7.86233L61.4508 12.2909H64.3966Z" fill="#0C0D0C"/>
<path d="M82.7051 7.09214H78.9357V17.0725H76.0849V7.09214H72.3155V4.55695H82.7051V7.09214Z" fill="#0C0D0C"/>
<path d="M98.0361 7.09214H94.2667V17.0725H91.4159V7.09214H87.6465V4.55695H98.0361V7.09214Z" fill="#0C0D0C"/>
<path d="M112.068 17.1045V4.58902H117.358C117.96 4.58902 118.499 4.71738 118.974 4.94202C119.481 5.19875 119.892 5.51966 120.241 5.90475C120.589 6.28985 120.874 6.77121 121.064 7.25258C121.254 7.76604 121.381 8.2795 121.381 8.79295C121.381 9.3385 121.286 9.88405 121.096 10.3975C120.906 10.911 120.621 11.3602 120.304 11.7453C119.987 12.1304 119.544 12.4513 119.069 12.7081C118.594 12.9327 118.055 13.0611 117.453 13.0611H114.951V17.1045H112.068ZM114.919 10.5259H117.263C117.612 10.5259 117.897 10.3654 118.15 10.0766C118.404 9.78778 118.499 9.3385 118.499 8.79295C118.499 8.50413 118.467 8.2474 118.372 8.02277C118.309 7.79813 118.182 7.63767 118.055 7.50931C117.928 7.38094 117.77 7.25258 117.612 7.1884C117.453 7.12422 117.295 7.09213 117.137 7.09213H114.919V10.5259Z" fill="#0C0D0C"/>
<path d="M136.142 14.5373V17.0725H127.463V4.55695H135.984V7.09214H130.314V9.53107H135.192V11.8737H130.314V14.5373H136.142Z" fill="#0C0D0C"/>
<path d="M145.771 4.55695H148.337L152.835 17.0725H149.921L148.971 14.2805H145.138L144.188 17.0725H141.273L145.771 4.55695ZM148.495 12.2909L147.038 7.86233L145.55 12.2909H148.495Z" fill="#0C0D0C"/>
<path d="M158.6 17.1045V4.58902H164.175C164.745 4.58902 165.284 4.71738 165.79 4.94202C166.297 5.19875 166.709 5.51966 167.057 5.90475C167.406 6.28985 167.691 6.77121 167.913 7.25258C168.103 7.76604 168.229 8.2795 168.229 8.79295C168.229 9.17805 168.198 9.56314 168.103 9.91614C168.008 10.2691 167.881 10.6221 167.691 10.9431C167.532 11.264 167.311 11.5528 167.057 11.8095C166.804 12.0662 166.519 12.2909 166.202 12.4513L168.926 17.1045H165.695L163.32 13.0611H161.451V17.1045H158.6ZM161.451 10.5259H164.048C164.397 10.5259 164.682 10.3654 164.935 10.0445C165.188 9.7236 165.315 9.30641 165.315 8.79295C165.315 8.2795 165.188 7.86231 164.903 7.5414C164.618 7.22049 164.333 7.09213 163.985 7.09213H161.451V10.5259Z" fill="#0C0D0C"/>
<path d="M174.089 10.7184C174.089 9.94824 174.216 9.21014 174.501 8.47205C174.786 7.73395 175.198 7.06004 175.705 6.4824C176.243 5.90476 176.877 5.42339 177.669 5.07039C178.429 4.71739 179.316 4.52484 180.266 4.52484C181.438 4.52484 182.42 4.78157 183.275 5.29503C184.131 5.80849 184.764 6.45031 185.176 7.28468L182.99 8.82505C182.864 8.50414 182.673 8.21532 182.452 7.99068C182.23 7.76604 182.008 7.60559 181.755 7.47722C181.501 7.34886 181.248 7.25258 180.963 7.1884C180.71 7.12422 180.424 7.12422 180.171 7.12422C179.633 7.12422 179.157 7.25258 178.746 7.44513C178.334 7.66977 178.017 7.95859 177.732 8.31159C177.447 8.66459 177.257 9.08178 177.13 9.49896C177.004 9.91615 176.94 10.3975 176.94 10.8468C176.94 11.3282 177.004 11.8095 177.162 12.2909C177.32 12.7402 177.542 13.1573 177.827 13.5103C178.112 13.8633 178.461 14.1522 178.841 14.3447C179.221 14.5373 179.696 14.6656 180.203 14.6656C180.456 14.6656 180.71 14.6335 180.995 14.5694C181.28 14.5052 181.533 14.4089 181.787 14.2805C182.04 14.1522 182.262 13.9596 182.483 13.735C182.705 13.5103 182.864 13.2536 182.99 12.9327L185.334 14.3126C185.144 14.7619 184.859 15.1791 184.511 15.5321C184.131 15.8851 183.719 16.206 183.244 16.4627C182.768 16.7195 182.262 16.912 181.723 17.0404C181.185 17.1687 180.678 17.2329 180.139 17.2329C179.252 17.2329 178.429 17.0404 177.669 16.6874C176.908 16.3023 176.275 15.8209 175.736 15.2112C175.198 14.6014 174.786 13.8954 174.469 13.1253C174.216 12.323 174.089 11.5207 174.089 10.7184Z" fill="#0C0D0C"/>
<path d="M200 14.5373V17.0725H191.321V4.55695H199.842V7.09214H194.172V9.53107H199.05V11.8737H194.172V14.5373H200Z" fill="#0C0D0C"/>
<path d="M38.7393 27.2453C38.7393 26.9886 38.8027 26.7319 38.866 26.4751C38.9294 26.2184 39.0878 26.0259 39.2461 25.8333C39.4045 25.6408 39.6262 25.5124 39.8796 25.4161C40.133 25.3199 40.3865 25.2557 40.7032 25.2557C41.0833 25.2557 41.4317 25.352 41.7168 25.5124C42.0019 25.6729 42.2236 25.9296 42.3503 26.2184L41.5584 26.4751C41.4634 26.3147 41.3367 26.1863 41.1783 26.09C41.02 25.9938 40.8616 25.9617 40.6715 25.9617C40.5132 25.9617 40.3548 25.9938 40.2281 26.058C40.1014 26.1221 39.9747 26.2184 39.8796 26.3147C39.7846 26.443 39.6896 26.5714 39.6262 26.7319C39.5629 26.8923 39.5312 27.0528 39.5312 27.2453C39.5312 27.4379 39.5629 27.5983 39.6262 27.7588C39.6896 27.9192 39.7529 28.0476 39.8796 28.176C40.0063 28.3043 40.1014 28.4006 40.2597 28.4648C40.4181 28.529 40.5448 28.5611 40.7032 28.5611C40.7982 28.5611 40.8933 28.5611 40.9883 28.529C41.0833 28.4969 41.1783 28.4648 41.2417 28.4006C41.305 28.3364 41.4001 28.3043 41.4634 28.2401C41.5268 28.176 41.5585 28.1118 41.5901 28.0476L42.382 28.2722C42.2553 28.5611 42.0336 28.7857 41.7485 28.9782C41.4634 29.1708 41.115 29.2671 40.7032 29.2671C40.4181 29.2671 40.133 29.2029 39.8796 29.1066C39.6262 29.0103 39.4362 28.8499 39.2461 28.6573C39.0878 28.4648 38.9294 28.2722 38.8343 28.0155C38.7393 27.7588 38.7393 27.5341 38.7393 27.2453Z" fill="#2F3230"/>
<path d="M48.8755 26.0259C48.5588 26.0259 48.2737 26.1221 48.052 26.2505C47.8302 26.3789 47.6402 26.5714 47.5452 26.8281V29.2029H46.7533V25.3519H47.5135V26.2184C47.6402 25.9617 47.7986 25.737 48.0203 25.5766C48.242 25.4161 48.4637 25.3199 48.6855 25.3199H48.8122C48.8439 25.3199 48.8755 25.3199 48.9072 25.3199L48.8755 26.0259Z" fill="#2F3230"/>
<path d="M54.6722 29.2671C54.3871 29.2671 54.102 29.2029 53.8486 29.1066C53.5952 29.0103 53.4051 28.8499 53.2151 28.6894C53.0567 28.4969 52.8983 28.3043 52.8033 28.0476C52.7083 27.7909 52.6766 27.5341 52.6766 27.2774C52.6766 27.0207 52.7083 26.764 52.8033 26.5072C52.8983 26.2505 53.025 26.058 53.2151 25.8654C53.3735 25.6729 53.5952 25.5445 53.8486 25.4161C54.102 25.2878 54.3554 25.2557 54.6722 25.2557C54.9889 25.2557 55.2423 25.3199 55.4641 25.4161C55.7175 25.5124 55.9075 25.6729 56.0659 25.8333C56.2243 26.0259 56.351 26.2184 56.446 26.4751C56.541 26.6998 56.5727 26.9565 56.5727 27.2132C56.5727 27.2774 56.5727 27.3416 56.5727 27.3737C56.5727 27.4058 56.5727 27.47 56.541 27.5021H53.5318C53.5635 27.6625 53.5952 27.823 53.6585 27.9513C53.7219 28.0797 53.8169 28.2081 53.912 28.3043C54.007 28.4006 54.1337 28.4969 54.2604 28.529C54.3871 28.5611 54.5455 28.5932 54.6722 28.5932C54.7672 28.5932 54.8939 28.5932 54.9889 28.5611C55.084 28.529 55.179 28.4969 55.274 28.4327C55.369 28.3685 55.4324 28.3043 55.4957 28.2401C55.5591 28.176 55.6224 28.0797 55.6541 27.9834L56.351 28.176C56.2243 28.4648 56.0025 28.6894 55.6858 28.882C55.4007 29.1708 55.0523 29.2671 54.6722 29.2671ZM55.8125 26.9886C55.7808 26.8281 55.7491 26.6677 55.6858 26.5393C55.6224 26.411 55.5274 26.2826 55.4324 26.1863C55.3374 26.09 55.2107 26.0259 55.084 25.9617C54.9572 25.8975 54.7989 25.8975 54.6405 25.8975C54.4821 25.8975 54.3554 25.9296 54.197 25.9617C54.0703 26.0259 53.9436 26.09 53.8486 26.1863C53.7536 26.2826 53.6585 26.411 53.5952 26.5393C53.5318 26.6677 53.5002 26.8281 53.4685 26.9886H55.8125Z" fill="#2F3230"/>
<path d="M61.9576 29.2671C61.7675 29.2671 61.6091 29.235 61.4508 29.1708C61.2924 29.1066 61.1657 29.0103 61.039 28.9141C60.9123 28.8178 60.8489 28.6894 60.7539 28.529C60.6589 28.3685 60.6589 28.2081 60.6589 28.0476C60.6589 27.8551 60.6905 27.6946 60.7856 27.5662C60.8806 27.4379 60.9756 27.2774 61.134 27.1811C61.2607 27.0849 61.4508 26.9886 61.6408 26.9244C61.8309 26.8602 62.0526 26.8281 62.306 26.8281C62.496 26.8281 62.6544 26.8602 62.8445 26.8923C63.0345 26.9244 63.1929 26.9565 63.3196 27.0207V26.764C63.3196 26.4751 63.2563 26.2505 63.0662 26.09C62.8762 25.9296 62.6861 25.8333 62.3693 25.8333C62.1793 25.8333 61.9576 25.8654 61.7675 25.9617C61.5775 26.058 61.3557 26.1542 61.1657 26.2826L60.9123 25.7691C61.4191 25.4482 61.9259 25.2557 62.4327 25.2557C62.9395 25.2557 63.3513 25.384 63.668 25.6729C63.9531 25.9296 64.1115 26.3468 64.1115 26.8281V28.2401C64.1115 28.4006 64.1749 28.4969 64.3332 28.4969V29.2029C64.2699 29.235 64.1749 29.235 64.1432 29.235C64.1115 29.235 64.0165 29.235 63.9848 29.235C63.8264 29.235 63.6997 29.2029 63.6364 29.1066C63.573 29.0103 63.5097 28.9141 63.478 28.8178L63.4463 28.5611C63.2879 28.7857 63.0662 28.9462 62.8128 29.0745C62.496 29.2029 62.2426 29.2671 61.9576 29.2671ZM62.1793 28.6573C62.3693 28.6573 62.5594 28.6252 62.7178 28.5611C62.8762 28.4969 63.0345 28.4006 63.1296 28.2722C63.2246 28.176 63.2879 28.0797 63.2879 27.9834V27.47C63.1612 27.4058 63.0029 27.3737 62.8445 27.3416C62.6861 27.3095 62.5594 27.3095 62.401 27.3095C62.1159 27.3095 61.8942 27.3737 61.7042 27.5021C61.5141 27.6304 61.4191 27.7909 61.4191 28.0155C61.4191 28.2081 61.4824 28.3685 61.6408 28.4969C61.7675 28.6252 61.9576 28.6894 62.1793 28.6573Z" fill="#2F3230"/>
<path d="M70.7951 29.0104C70.7 29.0745 70.5417 29.1066 70.3833 29.1708C70.2249 29.235 70.0032 29.2671 69.8131 29.2671C69.6864 29.2671 69.5597 29.235 69.4647 29.2029C69.338 29.1708 69.243 29.1066 69.1796 29.0424C69.0846 28.9783 69.0212 28.882 68.9896 28.7857C68.9579 28.6894 68.9262 28.529 68.9262 28.4006V25.9938H68.4194V25.352H68.9262V24.0683H69.7181V25.352H70.5417V25.9938H69.6864V28.1439C69.6864 28.2723 69.7498 28.3685 69.8131 28.4327C69.8765 28.4969 69.9715 28.529 70.0982 28.529C70.2249 28.529 70.3199 28.4969 70.415 28.4648C70.51 28.4327 70.605 28.4006 70.6367 28.3685L70.7951 29.0104Z" fill="#2F3230"/>
<path d="M75.0396 24.7101V23.8116H75.8315V24.7101H75.0396ZM75.0396 29.2029V25.352H75.8315V29.2029H75.0396Z" fill="#2F3230"/>
<path d="M81.5331 29.2029L80.076 25.352H80.8996L82.0082 28.529L83.1169 25.352H83.8771L82.42 29.2029H81.5331Z" fill="#2F3230"/>
<path d="M89.7054 29.2671C89.4203 29.2671 89.1353 29.2029 88.9135 29.1066C88.6601 29.0103 88.4701 28.8499 88.28 28.6894C88.1216 28.4969 87.9633 28.3043 87.8682 28.0476C87.7732 27.7909 87.7099 27.5341 87.7099 27.2774C87.7099 27.0207 87.7415 26.764 87.8682 26.5072C87.9633 26.2505 88.09 26.058 88.28 25.8654C88.4384 25.6729 88.6601 25.5445 88.9135 25.4161C89.1669 25.2878 89.4203 25.2557 89.7371 25.2557C90.0538 25.2557 90.3073 25.3199 90.529 25.4161C90.7824 25.5124 90.9725 25.6729 91.1308 25.8333C91.2892 26.0259 91.4476 26.2184 91.5109 26.4751C91.606 26.6998 91.6376 26.9565 91.6376 27.2132C91.6376 27.2774 91.6376 27.3416 91.6376 27.3737C91.6376 27.4058 91.6376 27.47 91.6376 27.5021H88.5968C88.5968 27.6625 88.6601 27.823 88.7235 27.9513C88.7868 28.0797 88.8819 28.2081 88.9769 28.3043C89.0719 28.4006 89.1986 28.4969 89.3253 28.529C89.452 28.5611 89.6104 28.5932 89.7371 28.5932C89.8321 28.5932 89.9588 28.5932 90.0538 28.5611C90.1489 28.529 90.2439 28.4969 90.3389 28.4327C90.434 28.3685 90.4973 28.3043 90.5607 28.2401C90.624 28.176 90.6874 28.0797 90.719 27.9834L91.4159 28.176C91.2892 28.4648 91.0675 28.6894 90.7507 28.882C90.434 29.0745 90.0855 29.2671 89.7054 29.2671ZM90.8457 26.9886C90.8457 26.8281 90.7824 26.6677 90.719 26.5393C90.6557 26.411 90.5607 26.2826 90.4656 26.1863C90.3706 26.09 90.2439 26.0259 90.1172 25.9617C89.9905 25.8975 89.8321 25.8975 89.6737 25.8975C89.5154 25.8975 89.3887 25.9296 89.2303 25.9617C89.1036 26.0259 88.9769 26.09 88.8819 26.1863C88.7868 26.2826 88.6918 26.411 88.6284 26.5393C88.5651 26.6677 88.5334 26.8281 88.5017 26.9886H90.8457Z" fill="#2F3230"/>
<path d="M102.629 29.2671C102.217 29.2671 101.932 29.1387 101.71 28.882C101.489 28.6253 101.394 28.2402 101.394 27.6946V25.3199H102.186V27.5021C102.186 28.2081 102.439 28.529 102.914 28.529C103.136 28.529 103.358 28.4648 103.548 28.3043C103.738 28.176 103.896 27.9513 104.023 27.6946V25.2878H104.815V28.176C104.815 28.2723 104.815 28.3364 104.846 28.3685C104.878 28.4006 104.941 28.4327 105.005 28.4327V29.2029C104.91 29.235 104.846 29.235 104.815 29.235C104.751 29.235 104.72 29.235 104.656 29.235C104.498 29.235 104.371 29.2029 104.276 29.1066C104.181 29.0103 104.118 28.9141 104.118 28.7857V28.4006C103.959 28.6894 103.738 28.882 103.453 29.0424C103.168 29.2029 102.946 29.2671 102.629 29.2671Z" fill="#2F3230"/>
<path d="M109.978 25.3199L110.896 26.6356L110.96 26.764L111.023 26.6356L111.942 25.3199H112.765L111.372 27.2453L112.765 29.1708H111.942L110.991 27.8551L110.928 27.7267L110.865 27.8551L109.914 29.1708H109.091L110.485 27.2453L109.091 25.3199H109.978Z" fill="#2F3230"/>
<path d="M121.191 23.972L117.643 29.2029H116.756L120.304 23.972H121.191Z" fill="#2F3230"/>
<path d="M126.544 29.2671C126.132 29.2671 125.847 29.1387 125.626 28.882C125.404 28.6253 125.309 28.2402 125.309 27.6946V25.3199H126.101V27.5021C126.101 28.2081 126.354 28.529 126.829 28.529C127.051 28.529 127.273 28.4648 127.463 28.3043C127.653 28.176 127.811 27.9513 127.938 27.6946V25.2878H128.73V28.176C128.73 28.2723 128.73 28.3364 128.761 28.3685C128.793 28.4006 128.857 28.4327 128.92 28.4327V29.2029C128.825 29.235 128.761 29.235 128.73 29.235C128.698 29.235 128.635 29.235 128.571 29.235C128.413 29.235 128.286 29.2029 128.191 29.1066C128.096 29.0103 128.033 28.9141 128.033 28.7857V28.4006C127.875 28.6894 127.653 28.882 127.368 29.0424C127.083 29.2029 126.893 29.2671 126.544 29.2671Z" fill="#2F3230"/>
<path d="M133.481 24.7101V23.8116H134.273V24.7101H133.481ZM133.481 29.2029V25.352H134.273V29.2029H133.481Z" fill="#2F3230"/>
<path d="M145.961 29.2671C145.708 29.2671 145.455 29.2029 145.265 29.1066C145.074 29.0104 144.853 28.8499 144.694 28.6894C144.536 28.4969 144.409 28.3044 144.314 28.0476C144.219 27.7909 144.188 27.5342 144.188 27.2774C144.188 27.0207 144.219 26.764 144.314 26.5072C144.409 26.2505 144.504 26.058 144.663 25.8654C144.821 25.6729 144.979 25.5445 145.201 25.4482C145.423 25.352 145.645 25.2878 145.866 25.2878C146.183 25.2878 146.436 25.352 146.658 25.5124C146.88 25.6729 147.07 25.8654 147.197 26.0901V23.8437H147.989V28.2402C147.989 28.3364 147.989 28.4006 148.02 28.4327C148.052 28.4648 148.115 28.4969 148.179 28.4969V29.2029C148.084 29.235 148.02 29.235 147.989 29.235C147.957 29.235 147.894 29.235 147.862 29.235C147.704 29.235 147.577 29.2029 147.482 29.1066C147.387 29.0104 147.323 28.9141 147.323 28.7857V28.4969C147.165 28.7536 147.007 28.9141 146.753 29.0745C146.5 29.235 146.246 29.2671 145.961 29.2671ZM146.151 28.5932C146.278 28.5932 146.373 28.5611 146.5 28.529C146.627 28.4969 146.722 28.4327 146.817 28.3685C146.912 28.3044 147.007 28.2081 147.07 28.1118C147.133 28.0155 147.197 27.9193 147.228 27.823V26.7961C147.197 26.6677 147.133 26.5714 147.038 26.4431C146.975 26.3468 146.88 26.2505 146.753 26.1863C146.658 26.1222 146.532 26.058 146.436 26.0259C146.31 25.9938 146.215 25.9617 146.088 25.9617C145.93 25.9617 145.771 25.9938 145.645 26.058C145.518 26.1222 145.391 26.2184 145.296 26.3468C145.201 26.4752 145.138 26.6035 145.074 26.764C145.011 26.9244 144.979 27.0849 144.979 27.2453C144.979 27.4379 145.011 27.5983 145.074 27.7588C145.138 27.9193 145.233 28.0476 145.328 28.176C145.423 28.3044 145.55 28.4006 145.708 28.4648C145.866 28.529 145.993 28.5611 146.151 28.5932Z" fill="#2F3230"/>
<path d="M154.419 29.2671C154.134 29.2671 153.849 29.2029 153.627 29.1066C153.373 29.0103 153.183 28.8499 152.993 28.6894C152.835 28.4969 152.677 28.3043 152.582 28.0476C152.487 27.7909 152.423 27.5341 152.423 27.2774C152.423 27.0207 152.455 26.764 152.582 26.5072C152.677 26.2505 152.803 26.058 152.993 25.8654C153.183 25.6729 153.373 25.5445 153.627 25.4161C153.88 25.2878 154.134 25.2557 154.45 25.2557C154.767 25.2557 155.021 25.3199 155.242 25.4161C155.496 25.5124 155.686 25.6729 155.844 25.8333C156.003 26.0259 156.161 26.2184 156.224 26.4751C156.319 26.6998 156.351 26.9565 156.351 27.2132C156.351 27.2774 156.351 27.3416 156.351 27.3737C156.351 27.4379 156.351 27.47 156.351 27.5021H153.31C153.31 27.6625 153.373 27.823 153.437 27.9513C153.5 28.0797 153.595 28.2081 153.69 28.3043C153.785 28.4006 153.912 28.4969 154.039 28.529C154.165 28.5611 154.324 28.5932 154.45 28.5932C154.545 28.5932 154.672 28.5932 154.767 28.5611C154.862 28.529 154.957 28.4969 155.052 28.4327C155.147 28.3685 155.211 28.3043 155.274 28.2401C155.337 28.176 155.401 28.0797 155.432 27.9834L156.129 28.176C156.003 28.4648 155.781 28.6894 155.464 28.882C155.147 29.0745 154.831 29.2671 154.419 29.2671ZM155.591 26.9886C155.591 26.8281 155.527 26.6677 155.464 26.5393C155.401 26.411 155.306 26.2826 155.211 26.1863C155.116 26.09 154.989 26.0259 154.862 25.9617C154.736 25.8975 154.577 25.8975 154.419 25.8975C154.26 25.8975 154.134 25.9296 153.975 25.9617C153.849 26.0259 153.722 26.09 153.627 26.1863C153.532 26.2826 153.437 26.411 153.373 26.5393C153.31 26.6677 153.278 26.8281 153.247 26.9886H155.591Z" fill="#2F3230"/>
<path d="M162.116 29.2671C161.799 29.2671 161.514 29.2029 161.197 29.1066C160.881 29.0103 160.627 28.8499 160.405 28.6894L160.722 28.176C160.944 28.3364 161.166 28.4648 161.387 28.5611C161.609 28.6573 161.831 28.6894 162.084 28.6894C162.306 28.6894 162.496 28.6252 162.654 28.5611C162.781 28.4648 162.876 28.3364 162.876 28.176C162.876 28.0155 162.813 27.8871 162.654 27.823C162.496 27.7588 162.243 27.6625 161.926 27.5662C161.672 27.502 161.482 27.4379 161.324 27.3737C161.166 27.3095 161.007 27.2453 160.912 27.1811C160.817 27.117 160.722 27.0207 160.691 26.9244C160.659 26.8281 160.627 26.6998 160.627 26.5393C160.627 26.3468 160.659 26.1542 160.754 26.0259C160.817 25.8654 160.944 25.737 161.071 25.6408C161.197 25.5445 161.356 25.4482 161.546 25.384C161.736 25.3199 161.926 25.3199 162.116 25.3199C162.401 25.3199 162.686 25.3519 162.908 25.4482C163.161 25.5445 163.383 25.6729 163.573 25.8333L163.225 26.3147C162.876 26.0259 162.496 25.8975 162.084 25.8975C161.894 25.8975 161.704 25.9296 161.577 26.0259C161.451 26.1221 161.356 26.2505 161.356 26.443C161.356 26.5072 161.356 26.5714 161.387 26.6356C161.419 26.6998 161.451 26.7319 161.546 26.764C161.609 26.796 161.704 26.8281 161.799 26.8602C161.894 26.8923 162.021 26.9244 162.179 26.9565C162.433 27.0207 162.654 27.0849 162.844 27.149C163.035 27.2132 163.193 27.2774 163.32 27.3737C163.446 27.47 163.541 27.5662 163.573 27.6625C163.605 27.7588 163.668 27.9192 163.668 28.0797C163.668 28.4648 163.541 28.7536 163.256 28.9461C162.94 29.1708 162.559 29.2671 162.116 29.2671Z" fill="#2F3230"/>
<path d="M168.008 24.7101V23.8116H168.8V24.7101H168.008ZM168.008 29.2029V25.352H168.8V29.2029H168.008Z" fill="#2F3230"/>
<path d="M174.945 29.235C174.691 29.235 174.438 29.1708 174.248 29.0745C174.058 28.9783 173.868 28.8178 173.709 28.6573C173.551 28.4969 173.424 28.2723 173.361 28.0155C173.297 27.7588 173.234 27.5342 173.234 27.2774C173.234 26.9886 173.266 26.7319 173.361 26.5072C173.456 26.2505 173.583 26.058 173.741 25.8654C173.899 25.6729 174.089 25.5445 174.311 25.4482C174.533 25.352 174.755 25.2878 175.04 25.2878C175.356 25.2878 175.61 25.352 175.831 25.5124C176.053 25.6729 176.243 25.8654 176.402 26.0901V25.352H177.099V29.1066C177.099 29.3954 177.035 29.6522 176.94 29.8447C176.845 30.0373 176.687 30.2298 176.528 30.3903C176.338 30.5507 176.148 30.647 175.895 30.7433C175.641 30.8395 175.388 30.8716 175.103 30.8716C174.691 30.8716 174.343 30.8074 174.058 30.647C173.773 30.4865 173.551 30.294 173.361 30.0373L173.804 29.6201C173.963 29.8126 174.121 29.9731 174.374 30.1014C174.596 30.1977 174.85 30.2619 175.103 30.2619C175.261 30.2619 175.42 30.2298 175.578 30.1977C175.736 30.1656 175.863 30.1014 175.958 30.0052C176.053 29.9089 176.148 29.7805 176.212 29.6522C176.275 29.5238 176.307 29.3313 176.307 29.1387V28.5611C176.18 28.7857 175.99 28.9783 175.736 29.1066C175.451 29.1708 175.198 29.235 174.945 29.235ZM175.198 28.5932C175.325 28.5932 175.451 28.5611 175.546 28.529C175.641 28.4969 175.768 28.4327 175.863 28.3685C175.958 28.3043 176.053 28.2081 176.117 28.1118C176.18 28.0155 176.243 27.9192 176.275 27.823V26.7961C176.212 26.6677 176.18 26.5714 176.085 26.4431C176.022 26.3468 175.927 26.2505 175.831 26.1863C175.736 26.1221 175.61 26.058 175.515 26.0259C175.42 25.9938 175.293 25.9617 175.166 25.9617C175.008 25.9617 174.85 25.9938 174.691 26.0901C174.564 26.1542 174.438 26.2826 174.343 26.3789C174.248 26.4751 174.184 26.6356 174.121 26.7961C174.058 26.9565 174.058 27.117 174.058 27.2774C174.058 27.47 174.089 27.6304 174.153 27.7909C174.216 27.9513 174.311 28.0797 174.406 28.2081C174.501 28.3364 174.628 28.4327 174.786 28.4969C174.945 28.5611 175.04 28.5611 175.198 28.5932Z" fill="#2F3230"/>
<path d="M185.112 29.2029H184.321V27.0528C184.321 26.6998 184.257 26.411 184.162 26.2505C184.067 26.0901 183.877 25.9938 183.655 25.9938C183.529 25.9938 183.434 26.0259 183.307 26.058C183.18 26.0901 183.085 26.1542 182.99 26.2505C182.895 26.3468 182.8 26.4431 182.705 26.5393C182.642 26.6356 182.547 26.764 182.515 26.8923V29.2029H181.723V25.352H182.452V26.1221C182.61 25.8654 182.8 25.6729 183.085 25.5124C183.37 25.352 183.655 25.2878 184.004 25.2878C184.226 25.2878 184.416 25.3199 184.574 25.4161C184.732 25.5124 184.827 25.6087 184.922 25.7691C185.017 25.9296 185.081 26.0901 185.112 26.2826C185.144 26.4752 185.176 26.6677 185.176 26.8923L185.112 29.2029Z" fill="#2F3230"/>
<path d="M191.448 29.2671C191.163 29.2671 190.877 29.2029 190.656 29.1066C190.402 29.0103 190.212 28.8499 190.022 28.6894C189.864 28.4969 189.705 28.3043 189.61 28.0476C189.515 27.7909 189.452 27.5341 189.452 27.2774C189.452 27.0207 189.515 26.764 189.61 26.5072C189.705 26.2505 189.832 26.058 190.022 25.8654C190.212 25.6729 190.402 25.5445 190.656 25.4161C190.909 25.2878 191.163 25.2557 191.479 25.2557C191.796 25.2557 192.049 25.3199 192.271 25.4161C192.525 25.5124 192.715 25.6729 192.873 25.8333C193.031 26.0259 193.19 26.2184 193.253 26.4751C193.348 26.6998 193.38 26.9565 193.38 27.2132C193.38 27.2774 193.38 27.3416 193.38 27.3737C193.38 27.4379 193.38 27.47 193.38 27.5021H190.339C190.339 27.6625 190.402 27.823 190.466 27.9513C190.529 28.0797 190.624 28.2081 190.719 28.3043C190.814 28.4006 190.941 28.4969 191.067 28.529C191.194 28.5611 191.353 28.5932 191.479 28.5932C191.574 28.5932 191.701 28.5932 191.796 28.5611C191.891 28.529 191.986 28.4969 192.081 28.4327C192.176 28.3685 192.239 28.3043 192.303 28.2401C192.366 28.176 192.43 28.0797 192.461 27.9834L193.158 28.176C193.031 28.4648 192.81 28.6894 192.493 28.882C192.176 29.0745 191.828 29.2671 191.448 29.2671ZM192.588 26.9886C192.588 26.8281 192.525 26.6677 192.461 26.5393C192.398 26.411 192.303 26.2826 192.208 26.1863C192.113 26.09 191.986 26.0259 191.859 25.9617C191.733 25.8975 191.574 25.8975 191.416 25.8975C191.258 25.8975 191.131 25.9296 191.004 25.9617C190.877 26.0259 190.751 26.09 190.656 26.1863C190.561 26.2826 190.466 26.411 190.402 26.5393C190.339 26.6677 190.307 26.8281 190.276 26.9886H192.588Z" fill="#2F3230"/>
<path d="M199.873 26.0259C199.557 26.0259 199.303 26.1221 199.05 26.2505C198.796 26.3789 198.638 26.5714 198.543 26.8281V29.2029H197.751V25.3519H198.48V26.2184C198.606 25.9617 198.796 25.737 198.986 25.5766C199.176 25.4161 199.43 25.3199 199.683 25.3199H199.81C199.842 25.3199 199.873 25.3199 199.905 25.3199V26.0259H199.873Z" fill="#2F3230"/>
</g>
<defs>
<clipPath id="clip0_220_641">
<rect width="200" height="31" fill="white"/>
</clipPath>
</defs>
</svg>
