<svg preserveAspectRatio="none" width="100%" height="100%" overflow="visible" style="display: block;" viewBox="0 0 26.6668 40" fill="none" xmlns="http://www.w3.org/2000/svg">
<g id="Figma Icon">
<path id="Vector" d="M0 33.3333C0 29.6515 2.98479 26.6667 6.66665 26.6667H13.3333V33.3333C13.3333 37.0152 10.3485 40 6.66665 40C2.98479 40 0 37.0152 0 33.3333Z" fill="var(--fill-0, #24CB71)"/>
<path id="Vector_2" d="M13.3333 0V13.3333H20C23.6818 13.3333 26.6666 10.3485 26.6666 6.66666C26.6666 2.9848 23.6818 0 20 0H13.3333Z" fill="var(--fill-0, #FF7237)"/>
<path id="Vector_3" d="M19.9443 26.6667C23.6262 26.6667 26.611 23.6819 26.611 20C26.611 16.3181 23.6262 13.3333 19.9443 13.3333C16.2624 13.3333 13.2777 16.3181 13.2777 20C13.2777 23.6819 16.2624 26.6667 19.9443 26.6667Z" fill="var(--fill-0, #00B6FF)"/>
<path id="Vector_4" d="M0 6.66666C0 10.3485 2.98479 13.3333 6.66665 13.3333H13.3333V0H6.66665C2.98479 0 0 2.9848 0 6.66666Z" fill="var(--fill-0, #FF3737)"/>
<path id="Vector_5" d="M0 20C0 23.6819 2.98479 26.6667 6.66665 26.6667H13.3333V13.3333H6.66665C2.98479 13.3333 0 16.3181 0 20Z" fill="var(--fill-0, #874FFF)"/>
</g>
</svg>
