<svg preserveAspectRatio="none" width="100%" height="100%" overflow="visible" style="display: block;" viewBox="0 0 24.002 23.9992" fill="none" xmlns="http://www.w3.org/2000/svg">
<path id="Union" d="M6.19183 1.49777C8.36828 0.294129 10.8657 -0.202379 13.3373 0.0749145C13.9956 0.149107 14.4688 0.742692 14.395 1.40109C14.3208 2.05938 13.7272 2.53257 13.0688 2.4587C11.0916 2.23698 9.09405 2.63541 7.35296 3.59835C5.61189 4.56134 4.21319 6.04198 3.35003 7.83468C2.4869 9.62761 2.20241 11.6453 2.53558 13.6071C2.86883 15.5687 3.8029 17.3786 5.20941 18.7859C6.61592 20.1931 8.42487 21.1293 10.3862 21.4636C12.3477 21.7977 14.3654 21.5133 16.1586 20.6511C17.9518 19.7888 19.433 18.3899 20.3969 16.6491C21.3606 14.9085 21.7592 12.9116 21.5385 10.9343C21.465 10.2758 21.9397 9.6809 22.5981 9.60714C23.2564 9.53366 23.8503 10.0085 23.9243 10.6667C24.2003 13.1386 23.7013 15.6362 22.4965 17.8122C21.2917 19.9881 19.4401 21.7363 17.1987 22.8142C14.9572 23.8918 12.4355 24.2464 9.98382 23.8288C7.53198 23.4111 5.26942 22.2414 3.51116 20.4821C1.75336 18.7232 0.585936 16.4611 0.169368 14.0095C-0.247099 11.5572 0.108984 9.03485 1.18792 6.79366C2.26688 4.55271 4.01542 2.70152 6.19183 1.49777ZM12.0034 4.8005C12.6659 4.80064 13.2026 5.33805 13.2026 6.0007C13.2026 6.66332 12.6659 7.20075 12.0034 7.20089C11.0541 7.20089 10.1257 7.48211 9.33636 8.00948C8.54712 8.5369 7.93204 9.28774 7.56878 10.1648C7.20579 11.0416 7.11119 12.0064 7.29632 12.9372C7.48157 13.8682 7.93863 14.7231 8.6098 15.3943C9.28103 16.0655 10.1358 16.5225 11.0668 16.7077C11.9977 16.8929 12.9624 16.7984 13.8393 16.4353C14.7163 16.072 15.4672 15.457 15.9946 14.6677C16.5219 13.8784 16.8031 12.9499 16.8032 12.0007C16.8032 11.3381 17.3399 10.8007 18.0024 10.8005C18.6651 10.8005 19.2026 11.338 19.2026 12.0007C19.2026 13.4244 18.7804 14.8159 17.9897 15.9997C17.1986 17.1837 16.0737 18.1071 14.7582 18.6521C13.4427 19.197 11.9946 19.34 10.5981 19.0622C9.20168 18.7844 7.91931 18.0983 6.91253 17.0915C5.90582 16.0848 5.21972 14.8023 4.94183 13.406C4.66405 12.0094 4.80715 10.5614 5.35199 9.24581C5.89688 7.93026 6.81946 6.80452 8.00335 6.01339C9.1872 5.22251 10.5796 4.8005 12.0034 4.8005ZM18.3539 0.352258C18.6971 0.00906462 19.2141 -0.0932424 19.6625 0.0924927C20.1105 0.278389 20.4028 0.715788 20.4028 1.20089V3.60031H22.8022C23.2875 3.60031 23.7248 3.8932 23.9106 4.34152C24.0963 4.78992 23.994 5.30594 23.6508 5.64913L20.0512 9.24874C19.8262 9.47378 19.5208 9.60031 19.2026 9.60031H16.1L14.3188 11.3806C14.3726 11.5813 14.4028 11.7893 14.4028 12.0007C14.4027 12.6371 14.1496 13.2469 13.6996 13.697C13.2496 14.147 12.6397 14.4 12.0034 14.4001C11.3669 14.4001 10.7562 14.1471 10.3061 13.697C9.85626 13.247 9.60299 12.637 9.60296 12.0007C9.60296 11.3642 9.85602 10.7535 10.3061 10.3034C10.7561 9.85338 11.3669 9.60031 12.0034 9.60031C12.2141 9.60033 12.4214 9.63081 12.6215 9.68429L14.4028 7.90402V4.8005C14.4028 4.48231 14.5293 4.17687 14.7543 3.95187L18.3539 0.352258ZM16.8032 5.29757V7.20089H18.7055L19.9057 6.0007H19.2026C18.5399 6.00062 18.0024 5.46319 18.0024 4.8005V4.09738L16.8032 5.29757Z" fill="var(--fill-0, #CE842F)"/>
</svg>
