<svg preserveAspectRatio="none" width="100%" height="100%" overflow="visible" style="display: block;" viewBox="0 0 24 24" fill="none" xmlns="http://www.w3.org/2000/svg">
<g id="Group 1">
<path id="Vector (Stroke)" d="M21.6 12C21.6 10.7393 21.3512 9.4909 20.8688 8.32617C20.3863 7.16154 19.6801 6.10271 18.7887 5.21133C17.8973 4.31994 16.8385 3.61369 15.6738 3.13125C14.5091 2.6488 13.2607 2.4 12 2.4C10.7393 2.4 9.4909 2.6488 8.32617 3.13125C7.16154 3.61369 6.10271 4.31995 5.21133 5.21133C4.31994 6.10271 3.61369 7.16154 3.13125 8.32617C2.6488 9.4909 2.4 10.7393 2.4 12C2.4 13.2607 2.6488 14.5091 3.13125 15.6738C3.61369 16.8385 4.31994 17.8973 5.21133 18.7887C6.10271 19.6801 7.16154 20.3863 8.32617 20.8688C9.4909 21.3512 10.7393 21.6 12 21.6C13.2607 21.6 14.5091 21.3512 15.6738 20.8688C16.8385 20.3863 17.8973 19.6801 18.7887 18.7887C19.6801 17.8973 20.3863 16.8385 20.8688 15.6738C21.3512 14.5091 21.6 13.2607 21.6 12ZM8.75156 6.95156C9.22019 6.48293 9.97981 6.48293 10.4484 6.95156C10.9171 7.42019 10.9171 8.17981 10.4484 8.64844L9.49688 9.6L10.4484 10.5516C10.9171 11.0202 10.9171 11.7798 10.4484 12.2484C9.97981 12.7171 9.22019 12.7171 8.75156 12.2484L7.8 11.2969L6.84844 12.2484C6.37981 12.7171 5.62019 12.7171 5.15156 12.2484C4.68293 11.7798 4.68293 11.0202 5.15156 10.5516L6.10313 9.6L5.15156 8.64844C4.68293 8.17981 4.68293 7.42019 5.15156 6.95156C5.62019 6.48293 6.37981 6.48293 6.84844 6.95156L7.8 7.90313L8.75156 6.95156ZM17.1516 6.95156C17.6202 6.48293 18.3798 6.48293 18.8484 6.95156C19.3171 7.42019 19.3171 8.17981 18.8484 8.64844L17.8969 9.6L18.8484 10.5516C19.3171 11.0202 19.3171 11.7798 18.8484 12.2484C18.3798 12.7171 17.6202 12.7171 17.1516 12.2484L16.2 11.2969L15.2484 12.2484C14.7798 12.7171 14.0202 12.7171 13.5516 12.2484C13.0829 11.7798 13.0829 11.0202 13.5516 10.5516L14.5031 9.6L13.5516 8.64844C13.0829 8.17981 13.0829 7.42019 13.5516 6.95156C14.0202 6.48293 14.7798 6.48293 15.2484 6.95156L16.2 7.90313L17.1516 6.95156ZM24 12C24 13.5759 23.6902 15.1367 23.0871 16.5926C22.4841 18.0484 21.5998 19.3713 20.4855 20.4855C19.3713 21.5998 18.0484 22.4841 16.5926 23.0871C15.1367 23.6902 13.5759 24 12 24C10.4241 24 8.86333 23.6902 7.40742 23.0871C5.95156 22.4841 4.62872 21.5998 3.51445 20.4855C2.40018 19.3713 1.51595 18.0484 0.912891 16.5926C0.309834 15.1367 0 13.5759 0 12C0 10.4241 0.309834 8.86333 0.912891 7.40742C1.51595 5.95156 2.40018 4.62872 3.51445 3.51445C4.62872 2.40018 5.95156 1.51595 7.40742 0.912891C8.86333 0.309834 10.4241 0 12 0C13.5759 0 15.1367 0.309834 16.5926 0.912891C18.0484 1.51595 19.3713 2.40018 20.4855 3.51445C21.5998 4.62872 22.4841 5.95156 23.0871 7.40742C23.6902 8.86333 24 10.4241 24 12Z" fill="var(--fill-0, #9C46AF)"/>
<path id="Vector (Stroke)_2" d="M14.1434 14.7598C14.6072 14.2868 15.367 14.2797 15.8402 14.7434C16.3132 15.2072 16.3203 15.967 15.8566 16.4402C15.3539 16.9532 14.7539 17.3608 14.0918 17.6391C13.4295 17.9173 12.7184 18.0609 12 18.0609C11.2816 18.0609 10.5705 17.9173 9.9082 17.6391C9.24608 17.3608 8.64605 16.9532 8.14335 16.4402C7.67968 15.967 7.68683 15.2072 8.15976 14.7434C8.63299 14.2797 9.39277 14.2868 9.85664 14.7598C10.1359 15.0448 10.4696 15.2719 10.8375 15.4266C11.2054 15.5812 11.6009 15.6609 12 15.6609C12.3991 15.6609 12.7945 15.5812 13.1625 15.4266C13.5304 15.2719 13.8641 15.0448 14.1434 14.7598Z" fill="var(--fill-0, #9C46AF)"/>
</g>
</svg>
