<svg preserveAspectRatio="none" width="100%" height="100%" overflow="visible" style="display: block;" viewBox="0 0 24.0004 23.9997" fill="none" xmlns="http://www.w3.org/2000/svg">
<g id="Group">
<path id="Union" d="M12.0013 0C14.3227 0 16.5503 0.889629 18.1917 2.47363C19.8329 4.05758 20.7542 6.20637 20.7542 8.44629C20.7542 9.69884 20.4651 10.9224 19.9242 12.0352L23.8324 18.5684C24.0629 18.9537 24.0561 19.4316 23.8128 19.8096C23.5695 20.1873 23.1292 20.4045 22.6693 20.376L19.0013 20.1475L17.3744 23.3281C17.17 23.727 16.7542 23.9847 16.2933 23.999C15.8325 24.0134 15.4009 23.7816 15.1703 23.3965L12.0003 18.0967L8.83139 23.3945C8.60094 23.7797 8.16896 24.0121 7.70834 23.998C7.24744 23.9837 6.83167 23.7251 6.62729 23.3262L4.9974 20.1484L1.33139 20.377C0.871403 20.4056 0.432194 20.1883 0.18881 19.8105C-0.0545734 19.4326 -0.0632013 18.9548 0.167326 18.5693L4.07748 12.0332C3.5372 10.9211 3.24936 9.69799 3.24936 8.44629C3.24938 6.20631 4.17059 4.05759 5.81186 2.47363C7.45321 0.889711 9.68009 9.27989e-05 12.0013 0ZM18.1917 14.4189C17.0369 15.5334 15.5911 16.3012 14.0277 16.6602L16.1673 20.2354L17.1302 18.3574C17.3539 17.9209 17.8278 17.6572 18.3314 17.6885L20.4984 17.8223L18.3597 14.248C18.3039 14.305 18.2493 14.3634 18.1917 14.4189ZM3.50131 17.8232L5.6683 17.6885L5.8558 17.6895C6.28724 17.7248 6.67459 17.9752 6.87045 18.3574L7.83236 20.2344L9.97104 16.6602C8.4093 16.3008 6.96562 15.5323 5.81186 14.4189C5.75344 14.3626 5.69755 14.3039 5.64096 14.2461L3.50131 17.8232ZM12.0013 2.41309C10.3434 2.41318 8.75376 3.04935 7.58139 4.18066C6.40895 5.31207 5.74938 6.84624 5.74936 8.44629C5.74936 10.0464 6.40895 11.5805 7.58139 12.7119C8.75376 13.8433 10.3433 14.4794 12.0013 14.4795C13.6594 14.4795 15.2497 13.8433 16.4222 12.7119C17.5946 11.5805 18.2533 10.0463 18.2533 8.44629C18.2532 6.84627 17.5946 5.31207 16.4222 4.18066C15.2497 3.04923 13.6594 2.41309 12.0013 2.41309Z" fill="var(--fill-0, #46A6AF)"/>
</g>
</svg>
