<svg preserveAspectRatio="none" width="100%" height="100%" overflow="visible" style="display: block;" viewBox="0 0 24 24" fill="none" xmlns="http://www.w3.org/2000/svg">
<path id="Union" d="M18.2861 12.5713C19.8015 12.5714 21.2546 13.1736 22.3262 14.2451C23.3978 15.3168 24 16.7706 24 18.2861C23.9999 19.8015 23.3977 21.2546 22.3262 22.3262C21.2546 23.3977 19.8015 23.9999 18.2861 24C16.7706 24 15.3168 23.3978 14.2451 22.3262C13.1736 21.2546 12.5714 19.8015 12.5713 18.2861C12.5713 16.7706 13.1735 15.3168 14.2451 14.2451C15.3168 13.1735 16.7706 12.5713 18.2861 12.5713ZM14.8574 0C15.4884 0.000150385 15.9998 0.511617 16 1.14258V2.28613H17.1426C18.0519 2.28613 18.9244 2.64706 19.5674 3.29004C20.2102 3.93291 20.5712 4.80477 20.5713 5.71387V10.2861C20.5711 10.8775 20.1218 11.3641 19.5459 11.4229L19.4287 11.4287H2.28613V19.4287C2.28617 19.7316 2.40604 20.0221 2.62012 20.2363C2.83444 20.4507 3.12561 20.5713 3.42871 20.5713H11.1943C11.8253 20.5714 12.3367 21.0829 12.3369 21.7139C12.3369 22.345 11.8255 22.8573 11.1943 22.8574H3.42871C2.51946 22.8574 1.64785 22.4954 1.00488 21.8525C0.361934 21.2096 3.72147e-05 20.338 0 19.4287V5.71387C0.000110874 4.8047 0.361999 3.93292 1.00488 3.29004C1.64784 2.64723 2.51953 2.28613 3.42871 2.28613H4.57129V1.14258C4.57144 0.511663 5.08297 0.000226234 5.71387 0C6.34496 0 6.85727 0.511524 6.85742 1.14258V2.28613H13.7139V1.14258C13.714 0.511524 14.2263 0 14.8574 0ZM18.2861 14.8574C17.3768 14.8574 16.5043 15.2183 15.8613 15.8613C15.2183 16.5043 14.8574 17.3768 14.8574 18.2861C14.8575 19.1953 15.2185 20.0671 15.8613 20.71C16.5043 21.3529 17.3768 21.7139 18.2861 21.7139C19.1953 21.7138 20.0671 21.3528 20.71 20.71C21.3528 20.0671 21.7138 19.1953 21.7139 18.2861C21.7139 17.3768 21.3529 16.5043 20.71 15.8613C20.0671 15.2185 19.1953 14.8575 18.2861 14.8574ZM18.2861 15.4238C18.917 15.4241 19.4285 15.9356 19.4287 16.5664V17.8125L20.2363 18.6201C20.6826 19.0664 20.6826 19.79 20.2363 20.2363C19.79 20.6826 19.0664 20.6826 18.6201 20.2363L17.4775 19.0938C17.2633 18.8794 17.1426 18.5882 17.1426 18.2852V16.5664C17.1428 15.9354 17.6551 15.4238 18.2861 15.4238ZM3.42871 4.57129C3.12561 4.57129 2.83444 4.69192 2.62012 4.90625C2.40602 5.12046 2.28624 5.41101 2.28613 5.71387V9.14258H18.2861V5.71387C18.286 5.41098 18.1653 5.12047 17.9512 4.90625C17.7368 4.69192 17.4457 4.57129 17.1426 4.57129H16V5.71387C16 6.34496 15.4885 6.85727 14.8574 6.85742C14.2262 6.85742 13.7139 6.34505 13.7139 5.71387V4.57129H6.85742V5.71387C6.85742 6.34505 6.34505 6.85742 5.71387 6.85742C5.08288 6.8572 4.57129 6.34491 4.57129 5.71387V4.57129H3.42871Z" fill="var(--fill-0, #992B2C)"/>
</svg>
